PathFileType	4	(X/Y/Z)	subject01_static.trc
DataRate	CameraRate	NumFrames	NumMarkers	Units	OrigDataRate	OrigDataStartFrame	OrigNumFrames
60.00	60.00	       4	49	mm	60.00	38	       300
Frame#	Time	R.ASIS			L.ASIS			V.Sacral			R.Thigh.Upper			R.Thigh.Front			R.Thigh.Rear			L.Thigh.Upper			L.Thigh.Front			L.Thigh.Rear			R.Knee.Lat			R.Knee.Med			L.Knee.Lat			L.Knee.Med			R.Shank.Upper			R.Shank.Front			R.Shank.Rear			L.Shank.Upper			L.Shank.Front			L.Shank.Rear			R.Ankle.Lat			R.Ankle.Med			L.Ankle.Lat			L.Ankle.Med			R.Heel			R.Midfoot.Sup			R.Midfoot.Lat			R.Toe.Tip			L.Heel			L.Midfoot.Sup			L.Midfoot.Lat			L.Toe.Tip			Sternum			R.Acromium			L.Acromium			R.Bicep			L.Bicep			R.Elbow			L.Elbow			R.Wrist.Med			R.Wrist.Lat			L.Wrist.Med			L.Wrist.Lat			R.Toe.Lat			R.Toe.Med			L.Toe.Lat			L.Toe.Med			R.Temple			L.Temple			Top.Head			
		X1	Y1	Z1	X2	Y2	Z2	X3	Y3	Z3	X4	Y4	Z4	X5	Y5	Z5	X6	Y6	Z6	X7	Y7	Z7	X8	Y8	Z8	X9	Y9	Z9	X10	Y10	Z10	X11	Y11	Z11	X12	Y12	Z12	X13	Y13	Z13	X14	Y14	Z14	X15	Y15	Z15	X16	Y16	Z16	X17	Y17	Z17	X18	Y18	Z18	X19	Y19	Z19	X20	Y20	Z20	X21	Y21	Z21	X22	Y22	Z22	X23	Y23	Z23	X24	Y24	Z24	X25	Y25	Z25	X26	Y26	Z26	X27	Y27	Z27	X28	Y28	Z28	X29	Y29	Z29	X30	Y30	Z30	X31	Y31	Z31	X32	Y32	Z32	X33	Y33	Z33	X34	Y34	Z34	X35	Y35	Z35	X36	Y36	Z36	X37	Y37	Z37	X38	Y38	Z38	X39	Y39	Z39	X40	Y40	Z40	X41	Y41	Z41	X42	Y42	Z42	X43	Y43	Z43	X44	Y44	Z44	X45	Y45	Z45	X46	Y46	Z46	X47	Y47	Z47	X48	Y48	Z48	X49	Y49	Z49	

38	0.617000	606.672670	1072.855830	157.464770	609.248960	1060.645870	-104.346600	410.463560	1079.440060	36.180330	543.761780	756.587710	224.125610	593.870120	681.556400	134.389510	522.991150	636.786070	226.459660	517.705260	767.931640	-168.931630	605.748840	718.333370	-111.685680	506.256990	658.409850	-160.449460	476.384800	553.471370	216.432360	469.839900	525.761230	97.965480	477.803530	528.705990	-150.418880	498.964420	519.656490	-36.393300	442.414090	468.952910	236.137310	514.221680	424.173860	183.974400	453.690830	384.022400	253.133320	468.612090	450.180630	-170.960590	517.536870	393.263090	-127.996110	446.512760	409.825780	-181.414020	437.609220	98.097900	255.479390	444.185270	103.510150	165.094920	442.973880	93.640560	-172.212040	464.981320	109.041750	-81.756040	366.724980	70.603210	210.291110	507.328220	80.264000	164.901630	509.295840	63.810090	272.880860	656.964480	50.617910	195.141220	371.309780	75.502240	-115.989410	544.826350	76.996330	-94.836170	523.179930	65.833150	-191.980450	654.256590	48.121080	-127.748320	605.860110	1423.903690	23.012990	490.069640	1550.213870	192.253460	488.523500	1560.748290	-148.342710	523.965270	1504.903560	357.453160	532.914490	1506.529790	-326.060180	518.937190	1473.336550	460.929660	497.226230	1474.629270	-427.310700	670.305110	1468.760130	686.021300	610.548650	1477.321900	711.056700	625.836790	1440.759400	-644.744930	554.511900	1444.885740	-662.514950	599.755430	39.579990	276.630650	593.970030	49.233240	167.951720	585.345090	39.916630	-201.712390	605.987550	51.439050	-100.988550	608.960080	1655.462770	126.263980	668.568540	1645.989140	0.596010	590.264100	1814.776120	30.494100	
39	0.633000	606.797240	1072.927250	157.431520	609.226870	1060.632080	-104.354320	410.375890	1079.411870	36.188270	543.710570	756.541560	224.153500	593.781310	681.639530	134.377200	522.917180	636.782960	226.511920	517.601320	767.941960	-168.861240	605.657780	718.323120	-111.714670	506.207640	658.430110	-160.453350	476.308140	553.471560	216.490170	469.827550	525.760010	97.969960	477.780400	528.692320	-150.394170	498.890080	519.688170	-36.361880	442.364320	468.928800	236.142180	514.170780	424.166630	183.933670	453.646300	384.049710	253.120770	468.488100	450.216220	-170.908970	517.521060	393.240630	-127.978840	446.407350	409.796300	-181.412860	437.622220	98.100230	255.507220	444.121310	103.567210	165.091640	442.973880	93.640570	-172.212040	464.985470	109.060010	-81.746680	366.747960	70.565430	210.263260	507.353450	80.270590	164.906270	509.319030	63.780160	272.904390	656.928830	50.611870	195.107040	371.360570	75.496080	-115.919280	544.818050	77.022640	-94.798260	522.876710	65.734630	-192.063450	654.284670	48.139680	-127.719960	605.837520	1423.974850	23.018980	490.061460	1550.231450	192.222350	488.463930	1560.757080	-148.360030	523.857480	1504.914920	357.452420	532.891420	1506.500980	-326.129090	518.959660	1473.384890	460.906460	497.232790	1474.641600	-427.333440	670.690060	1469.005000	685.801640	610.683410	1477.295650	711.054380	625.862610	1440.760990	-644.697270	554.526550	1444.857670	-662.516480	600.017330	39.561830	276.686890	593.917600	49.105480	168.012890	585.345090	39.916630	-201.712390	605.980530	51.397240	-100.937500	608.847720	1655.363650	126.302300	668.469790	1645.864500	0.554330	590.363950	1814.765010	30.435750	
40	0.650000	606.936830	1073.012570	157.390900	609.209720	1060.609860	-104.375640	410.310670	1079.398320	36.206200	543.683720	756.515380	224.166640	593.706180	681.729490	134.373540	522.880370	636.781250	226.537580	517.525880	767.978030	-168.797410	605.601320	718.307010	-111.736230	506.153990	658.449950	-160.452870	476.255650	553.479800	216.565190	469.830600	525.760190	97.968760	477.771910	528.676700	-150.380430	498.863740	519.704410	-36.345290	442.323640	468.898320	236.148560	514.110600	424.165070	183.926730	453.577880	384.073760	253.110310	468.345950	450.262540	-170.844560	517.450130	393.182620	-127.908030	446.251530	409.746280	-181.418750	437.634190	98.102390	255.532850	444.093570	103.612590	165.095050	442.973880	93.640570	-172.212040	464.984650	109.056270	-81.748600	366.757050	70.509480	210.208530	507.390630	80.283690	164.913930	509.356080	63.745990	272.926850	656.971980	50.619190	195.148450	371.420200	75.457920	-115.905990	544.813290	77.037700	-94.776570	522.752260	65.715060	-192.090760	654.311400	48.154820	-127.694110	605.826970	1424.021240	23.022510	490.003200	1550.207400	192.207350	488.428770	1560.748050	-148.352330	523.751530	1504.918330	357.448210	532.872740	1506.468990	-326.168950	518.993160	1473.444210	460.877170	497.211000	1474.647340	-427.324800	670.941220	1469.152470	685.646360	610.614320	1477.261960	711.038640	625.879940	1440.725100	-644.648990	554.515140	1444.772580	-662.495480	600.147160	39.552830	276.714750	593.981630	49.060530	168.039280	585.345090	39.916630	-201.712390	605.976810	51.380250	-100.915800	608.722600	1655.267090	126.339540	668.402770	1645.757930	0.507450	590.449710	1814.750120	30.402180	
41	0.667000	607.036740	1073.085820	157.356280	609.192750	1060.586910	-104.410320	410.264430	1079.400510	36.228800	543.674320	756.513120	224.159910	593.630620	681.798580	134.373690	522.870360	636.780700	226.544370	517.488460	768.036250	-168.781560	605.570500	718.289860	-111.768710	506.074950	658.468690	-160.442580	476.217770	553.500240	216.655140	469.838290	525.760680	97.965980	477.767210	528.651370	-150.374920	498.859710	519.715520	-36.332570	442.303710	468.862270	236.157070	514.017150	424.154300	183.938490	453.503540	384.091060	253.104660	468.223080	450.308040	-170.786000	517.336670	393.119810	-127.833840	446.092900	409.680570	-181.435640	437.631290	98.101870	255.526750	444.067570	103.631990	165.092010	442.973880	93.640570	-172.212040	464.985050	109.058050	-81.747680	366.749790	70.452640	210.144030	507.387450	80.288510	164.914760	509.372070	63.742430	272.928890	657.060300	50.634170	195.233230	371.494690	75.378690	-115.906900	544.811580	77.043130	-94.768740	522.815430	65.737400	-192.072860	654.311770	48.166820	-127.691200	605.824950	1424.042480	23.023820	489.848330	1550.114010	192.208470	488.400600	1560.705810	-148.318860	523.684330	1504.928590	357.438510	532.855410	1506.441650	-326.178310	519.028380	1473.495730	460.850740	497.130160	1474.647830	-427.287570	671.016050	1469.183110	685.584530	610.374390	1477.253050	711.034790	625.876950	1440.666990	-644.615840	554.464780	1444.667970	-662.467710	600.184080	39.550270	276.722690	594.112060	49.083530	168.042920	585.345090	39.916630	-201.712390	605.976870	51.408430	-100.912060	608.607910	1655.195070	126.371150	668.367310	1645.675420	0.484760	590.521850	1814.734010	30.385900	
